<?xml version="1.0" encoding="utf-8"?>
<!-- Generator: Adobe Illustrator 21.1.0, SVG Export Plug-In . SVG Version: 6.00 Build 0)  -->
<svg version="1.1" id="Layer_1" xmlns="http://www.w3.org/2000/svg" xmlns:xlink="http://www.w3.org/1999/xlink" x="0px" y="0px"
	 viewBox="0 0 74.5 103.4" style="enable-background:new 0 0 74.5 103.4;" xml:space="preserve">
<style type="text/css">
	.st0{fill:#D23F51;}
	.st1{fill:#F79130;}
	.st2{fill:#F9EC8E;}
</style>
<path class="st0" d="M74.5,0c-0.1,0.7-1.7,6.1-10.3,14.4c-9.1,8.8-10.4,9.3-11.7,21c-1.4,11.7,0.3,23.3-13.7,28.5
	c-14,5.2-32.1,7.6-32.6,27.6c0,0-0.1-0.3-0.2-0.7c-0.5-2.2-1.5-9.3,3.1-16C14.2,67,23,64.2,24.3,63.8c-0.7,0.1-4,0.6-9.7,2.6
	c-2.6,0.9-6,2.5-9.2,6.6c-5.1,6.7-4.1,14.5-3.8,16l-1.1-4c0-0.1-0.1-0.3-0.1-0.4c-1-5.6-1.1-15.1,7.8-19.9
	c13.2-7.2,30.9-10.8,33.5-27c0,0,3.1,10.7-6.2,17.4c0,0,7.6,0.8,9.9-15.4c2.3-16.1,5.3-18.6,14.6-24.7C68.9,9.2,74,0.8,74.5,0z"/>
<path class="st1" d="M23.5,79.8c0.3-0.1,3.1-1.3,6-2.1c-1,0.5-17.5,9-17.3,25.1l-0.1,0.6l-0.5-0.5l-0.6-0.8c0-2.3,0.2-4.4,0.7-6.3
	c1.8-9.1,7-13.4,7.8-14c-6.2,3.8-8.8,8.2-9.8,11.8c-1,3.4-0.5,6-0.4,6.7l-0.5-0.5l-0.9-1.1l-1-1.2l-4.2-4.7c0,0-0.9-2.8-1.1-3.5
	c0,0,0,0,0-0.1c0,0,0-0.1,0-0.2v0c-0.3-1.5-1.3-9.3,3.8-16c3.2-4.1,6.6-5.7,9.2-6.6c5.7-2,9-2.5,9.7-2.6C23,64.2,14.2,67,9,74.7
	c-4.5,6.7-3.6,13.8-3.1,16c0.1,0.5,0.2,0.7,0.2,0.7l0.9,3.8L7.2,94c0,0,0-0.1,0-0.4c0-0.1,0-0.2,0.1-0.3c0.5-3,4-15,26.4-19.4
	C32.9,74.3,26.2,77.4,23.5,79.8z"/>
<path class="st1" d="M19.5,81.8c-0.8,0.6-6,4.9-7.8,14c-0.4,1.9-0.7,4-0.7,6.3l-0.4-0.4l-1.3-1.5c-0.2-0.7-0.6-3.4,0.4-6.7
	C10.7,90,13.3,85.6,19.5,81.8z"/>
<path class="st0" d="M36.8,76.9c1-0.2,6.2-1.7,11.2-5.5c5.5-4.3,6.7-12.2,6.7-12.2s-0.8,7.5-6.4,14.4c-5.5,6.9-11.8,9.2-23.2,15.5
	c-9.3,5.2-12,10.9-12.7,12.9c-0.1,0.3-0.2,0.5-0.2,0.6c0,0.1,0,0.1,0,0.1C12,86.8,28.5,78.3,29.5,77.8c-2.9,0.8-5.7,1.9-6,2.1
	c2.7-2.4,9.4-5.5,10.2-5.9C11.3,78.3,7.8,90.4,7.3,93.3L7.6,91l0.3-2.3c0,0,0,0,0,0c4-15.7,23.2-18.4,30.5-20.3
	c8.1-2.1,13.3-7.5,14.9-21.4c1.5-13.3,2.5-18.8,2.8-20c-0.1,1.5-0.5,7.5-0.9,13c-0.4,5-1.1,17.9-4.3,25.5
	C47.9,72.5,38.1,76.4,36.8,76.9z"/>
<path class="st2" d="M19.5,81.8c-0.8,0.6-6,4.9-7.8,14c-0.4,1.9-0.7,4-0.7,6.3l-0.4-0.4l-1.3-1.5c-0.2-0.7-0.6-3.4,0.4-6.7
	C10.7,90,13.3,85.6,19.5,81.8z"/>
</svg>
