<?xml version="1.0" encoding="utf-8"?>
<!-- Generator: Adobe Illustrator 21.1.0, SVG Export Plug-In . SVG Version: 6.00 Build 0)  -->
<svg version="1.1" id="Layer_1" xmlns="http://www.w3.org/2000/svg" xmlns:xlink="http://www.w3.org/1999/xlink" x="0px" y="0px"
	 viewBox="0 0 100.4 51.7" style="enable-background:new 0 0 100.4 51.7;" xml:space="preserve">
<style type="text/css">
	.st0{fill:#263438;}
</style>
<path class="st0" d="M7.9,14.1c0,0-1.8-4.4-1.8-8.9c0,0-3.6-2.6-5.3-3.7s3.5-2.2,7.1-1.1s16.7,8.1,16.7,8.1s18.3-0.5,25.1,2.8
	s5.5,3.3,6.8,3.3c1.3,0,11.3-1.6,14.1,0s-1.6,9.2-1.6,9.2s9,9.8,15.5,10.2c0,0,9.9-9.2,13.3-10.5c3.4-1.3,3.3-0.9,2.8,2.3
	s-1.1,8.5-2,9.5c-0.9,0.9-2.2,1.7-2.2,1.7s2.1,0.2,2.3,2.3c0.2,2-0.6,5.5,0.2,8.5c0.8,2.9,0.3,4-0.9,3.9
	c-1.2-0.1-11.7-9.9-12.9-10.4c-1.2-0.5-7.8,0-8.4,0.5s-4.2,6.1-4.9,6.1c-0.7,0-6.9-4.5-8.8-6.9c0,0-22-5.5-28.8-9L33,33.9
	c0,0-5.1-3.6-8.1-7.6c0,0-3.7,2.3-13-3.8S0.2,13.3,0,11.8S2.7,12.9,7.9,14.1z"/>
</svg>
