<?xml version="1.0" encoding="utf-8"?>
<!-- Generator: Adobe Illustrator 21.1.0, SVG Export Plug-In . SVG Version: 6.00 Build 0)  -->
<svg version="1.1" id="Layer_1" xmlns="http://www.w3.org/2000/svg" xmlns:xlink="http://www.w3.org/1999/xlink" x="0px" y="0px"
	 viewBox="0 0 163.3 55.2" style="enable-background:new 0 0 163.3 55.2;" xml:space="preserve">
<style type="text/css">
	.st0{fill:#DAC392;}
	.st1{fill:#263438;}
	.st2{fill:#455B5C;}
	.st3{fill:#243636;}
	.st4{fill:#637E76;}
</style>
<g>
	<polygon class="st0" points="32.2,55.2 32.2,40.1 60.2,15.6 60.2,0 65.1,0 65.1,15.8 69.5,19.7 69.5,55.2 	"/>
	<polygon class="st1" points="0,40.1 27.9,15.6 60.2,15.6 32.2,40.1 	"/>
	<rect y="40.1" class="st2" width="32.2" height="15.1"/>
	<rect x="22.2" y="44.4" class="st3" width="6.3" height="4"/>
	<polygon class="st0" points="78,55.2 66.7,55.2 66.7,37 78,27.8 	"/>
	<path class="st0" d="M110.7,55.2"/>
	<polygon class="st0" points="110.7,55.2 110.7,30.4 136.9,11.4 157.1,32.2 157.1,55.2 	"/>
	<polygon class="st1" points="163.3,27.6 157.1,27.6 155.8,26.1 155.4,25.6 154.7,24.8 154.4,24.4 153,22.9 152.5,22.4 151.6,21.3 
		150.6,20.2 146.5,15.5 138.8,6.8 110.7,27.6 78,27.8 66.7,37 47.3,37 82.1,5.7 144.3,5.7 144.3,5.7 145.1,6.6 149.4,11.6 
		149.5,11.7 150,12.3 151.2,13.6 151.3,13.8 151.5,14 153.4,16.2 155.4,18.5 156.6,19.9 157.1,20.5 157.9,21.4 	"/>
	<rect x="115.3" y="35.8" class="st1" width="11.1" height="9.2"/>
	<polygon class="st2" points="110.7,55.2 78,55.2 78,27.8 110.7,27.6 	"/>
	<rect x="98.4" y="35.8" class="st1" width="9.8" height="9.2"/>
	<rect x="80.6" y="35.8" class="st1" width="9.8" height="9.2"/>
	<rect x="141.7" y="35.8" class="st1" width="11.1" height="9.2"/>
	<rect x="50.9" y="37" class="st2" width="15.8" height="18.2"/>
	<rect x="38" y="40.4" class="st3" width="4.9" height="8"/>
	<rect x="55.2" y="40.4" class="st3" width="4.9" height="8"/>
	<rect x="58" class="st4" width="2.2" height="15.6"/>
	<polygon class="st4" points="157.1,27.6 157.1,32.2 136.9,11.4 110.7,30.4 110.7,27.6 138.8,6.8 146.5,15.5 150.6,20.2 151.6,21.3 
		152.5,22.4 153,22.9 154.4,24.4 154.7,24.8 155.4,25.6 155.8,26.1 	"/>
</g>
</svg>
