<?xml version="1.0" encoding="utf-8"?>
<!-- Generator: Adobe Illustrator 21.1.0, SVG Export Plug-In . SVG Version: 6.00 Build 0)  -->
<svg version="1.1" id="Layer_1" xmlns="http://www.w3.org/2000/svg" xmlns:xlink="http://www.w3.org/1999/xlink" x="0px" y="0px"
	 viewBox="0 0 82.5 149.3" style="enable-background:new 0 0 82.5 149.3;" xml:space="preserve">
<style type="text/css">
	.st0{fill:#243636;}
</style>
<path class="st0" d="M56,19c0,0,1.5-2.9,2.9-3.8c1.4-0.9,1.7-3.9,1.9-5.2C61,8.8,61.6,7.8,62.4,8c0.8,0.2,4.8,0.9,4.9,0.7
	c0.2-0.2,0.4-1.9,1-1.6c0.6,0.3,3.3,2.8,4.3,2.9s1.3,0.3,2.3,0.9c1.1,0.6,3.6-0.3,4.7,0.8s0.3,1.3,1.8,2.5s1.3,3.6,0.9,4.8
	c-0.4,1.2,0.6,3.8-0.8,6.3c-1.5,2.5-4.2,5.5-8.9,4.3c-4.7-1.2-4.2-4.5-5.6-5c-1.4-0.5-2.4,0.8-2.7,1.7c0,0,0.8,0.8-0.5,2.7
	c-1.3,1.9-1,3.1-1.7,5.3c-0.7,2.2-6.3,6.7-12.3,10.4s-7.3,6.7-10,6.8c0,0,1.1,5.9-0.8,11.3s-6.3,8-6.3,8s-0.8,5,0,7.6
	c0.8,2.6,0.8,4.3,0.8,4.3S33,83.8,30,85.9c0,0-1.1,6.2-0.8,7c0.3,0.8,2.8-0.4,6.7,2.6s5.4,3.8,5.4,3.8s0.4-1.2,1.6,0
	c1.2,1.2,3,3.7,5.9,3.5c2.8-0.3,5.7-0.8,7.9-0.3l-0.1-0.9h2.8c0,0,0.3,3.3,0,6.9s-0.3,6.8-0.3,6.8h1.5c0,0,0.6,6-0.4,8.7
	c-1,2.7-1.7,3.4-3.5,3.5c-1.8,0.1-2.3-3.2-2.3-5.2s0.2-3.2-0.7-4.1c-1-0.9-6.1-6.9-7-7.5s-1.9-1-3.3-1.2s-2.6-0.2-2.6-0.2
	s3.9,8.1,4.6,9.1c0.6,1,1.7,2.8,1.7,2.8s1.5-0.6,1.5,1.4s1.3,2.8,2.6,3.6s5,2.3,5,2.3s2.6,2.3-2,8.4h-1.1c0,0,0.4,4-1.2,6.8
	s-4.4,4.9-7.3,5.4c-2.8,0.5-2.8,0-2.8,0s-1.2-2.2,0-3.7c1.2-1.5,1.3-0.9,1.6-1.7s0.7-10,0.2-10.7c-0.5-0.7-1.4-1.2-1.5-2.5
	c-0.1-1.3-2.5-3.8-2.4-4.5c0.1-0.7,0.7-1,0.7-1s-8.2-10.8-12.8-15.2s-10.1-7.6-11.7-8.6c-1.6-0.9-4.7-2.3-5.1-6.4S13,82.3,13,82.3
	s-3.6-1.5-4-5.2c0,0,1.9-0.8,2.2-2.3s2.7-10.1,5.1-15.5S22.1,45,22.1,45s-1.9-1.2-2.6-1.2c-0.7,0-1.1,0.3-2-0.2S9.1,45.8,6,43.1
	s-2.8-5.2-2-7.3s2.2-4.5,5.3-3.7c3.1,0.8,2.9,2.5,4.1,2.6c1.2,0.1,2.3,0.1,3.5,1.4s2.2,1.9,2.7,2.2c0.5,0.3,0.5,0.9,0.5,0.9h7.5
	c0,0,1.5-6,2.4-8.4c0,0-2.9-1-4.9-2.8c-2-1.9-8.8-10.1-8.8-10.1s-1,0.2-2.2-1.3s-1.8-3.3-3.7-3.4s-7.7,0-9.6-2.8S0.1,3.1,3.8,0.9
	s7.6-0.2,9.8,3.2s4.4,5.9,5.4,7.2s0.1,1.8,0.1,1.8S28,18.8,29.7,21s3.4,1.9,6.2,1.8c2.8-0.1,5.7-0.1,5.7-0.1s0.2-1,0.6-1.1
	c0.5-0.1,11.4-1.2,11.8-1.2C54.5,20.3,55,18.5,56,19z"/>
</svg>
