<?xml version="1.0" encoding="utf-8"?>
<!-- Generator: Adobe Illustrator 21.1.0, SVG Export Plug-In . SVG Version: 6.00 Build 0)  -->
<svg version="1.1" id="Layer_1" xmlns="http://www.w3.org/2000/svg" xmlns:xlink="http://www.w3.org/1999/xlink" x="0px" y="0px"
	 viewBox="0 0 69.8 30.2" style="enable-background:new 0 0 69.8 30.2;" xml:space="preserve">
<style type="text/css">
	.st0{fill:#243636;}
</style>
<path class="st0" d="M54.4,0c-9.2,0-13.9,5.6-19.5,5.6S24.5,0,15.4,0S0,7.1,0,7.1s1,23.1,17.5,23.1c9.2,0,9.8-9.2,17.4-9.2
	s8.3,9.2,17.4,9.2c16.5,0,17.5-23.1,17.5-23.1S63.6,0,54.4,0z M19.4,18.1c-5.9,0-10.1-5.8-10.1-5.8s3-2.8,8.2-2.8
	c5.1,0,9.6,5.6,9.6,5.6S25.3,18.1,19.4,18.1z M50.4,18.1c-5.9,0-7.7-3-7.7-3s4.4-5.6,9.6-5.6c5.2,0,8.2,2.8,8.2,2.8
	S56.3,18.1,50.4,18.1z"/>
</svg>
