<?xml version="1.0" encoding="utf-8"?>
<!-- Generator: Adobe Illustrator 21.1.0, SVG Export Plug-In . SVG Version: 6.00 Build 0)  -->
<svg version="1.1" id="Layer_1" xmlns="http://www.w3.org/2000/svg" xmlns:xlink="http://www.w3.org/1999/xlink" x="0px" y="0px"
	 viewBox="0 0 349.5 13.2" style="enable-background:new 0 0 349.5 13.2;" xml:space="preserve">
<g>
	<polygon points="30.4,10.9 30.4,13.2 0,13.2 0,10.9 3.2,10.9 3.2,8.2 6.4,8.2 6.4,5.4 9.6,5.4 9.6,2.7 13.3,2.7 13.3,0 17.2,0 
		17.2,2.7 20.9,2.7 20.9,5.4 24.1,5.4 24.1,8.2 27.2,8.2 27.2,10.9 	"/>
	<polygon points="110.2,10.9 110.2,13.2 79.8,13.2 79.8,10.9 83,10.9 83,8.2 86.1,8.2 86.1,5.4 89.3,5.4 89.3,2.7 93,2.7 93,0 
		96.9,0 96.9,2.7 100.7,2.7 100.7,5.4 103.8,5.4 103.8,8.2 107,8.2 107,10.9 	"/>
	<polygon points="190,10.9 190,13.2 159.6,13.2 159.6,10.9 162.7,10.9 162.7,8.2 165.9,8.2 165.9,5.4 169.1,5.4 169.1,2.7 
		172.8,2.7 172.8,0 176.7,0 176.7,2.7 180.4,2.7 180.4,5.4 183.6,5.4 183.6,8.2 186.8,8.2 186.8,10.9 	"/>
	<polygon points="269.7,10.9 269.7,13.2 239.3,13.2 239.3,10.9 242.5,10.9 242.5,8.2 245.7,8.2 245.7,5.4 248.9,5.4 248.9,2.7 
		252.6,2.7 252.6,0 256.5,0 256.5,2.7 260.2,2.7 260.2,5.4 263.4,5.4 263.4,8.2 266.6,8.2 266.6,10.9 	"/>
	<polygon points="349.5,10.9 349.5,13.2 319.1,13.2 319.1,10.9 322.3,10.9 322.3,8.2 325.5,8.2 325.5,5.4 328.7,5.4 328.7,2.7 
		332.4,2.7 332.4,0 336.3,0 336.3,2.7 340,2.7 340,5.4 343.2,5.4 343.2,8.2 346.3,8.2 346.3,10.9 	"/>
</g>
</svg>
