<?xml version="1.0" encoding="utf-8"?>
<!-- Generator: Adobe Illustrator 21.1.0, SVG Export Plug-In . SVG Version: 6.00 Build 0)  -->
<svg version="1.1" id="Layer_1" xmlns="http://www.w3.org/2000/svg" xmlns:xlink="http://www.w3.org/1999/xlink" x="0px" y="0px"
	 viewBox="0 0 469 37.4" style="enable-background:new 0 0 469 37.4;" xml:space="preserve">
<g>
	<path d="M52.3,15.5v-3.9h-3.8V7.7h-3.8V3.8h-4.5V0h-2.3h-2.3v3.8H31v3.9h-3.8v3.9h-3.8v3.9h-3.8v3.2v3.2h3.8v3.9h3.8v3.9H31v3.9
		h4.5v3.8h2.3h2.3v-3.8h4.5v-3.9h3.8v-3.9h3.8v-3.9h3.8v-3.2v-3.2H52.3z M47.5,19.7h-1v1h-1v1h-1v1h-1v1h-1v1h-1v1h-1v1h-1v1h-1v1
		h-1h-1v-1h-1v-1h-1v-1h-1v-1h-1v-1h-1v-1h-1v-1h-1v-1h-1v-1h-1v-1v-1h1v-1h1v-1h1v-1h1v-1h1v-1h1v-1h1v-1h1v-1h1v-1h1h1v1h1v1h1v1
		h1v1h1v1h1v1h1v1h1v1h1v1h1v1V19.7z"/>
	<polygon points="18.7,8.9 18.7,7.9 17.8,7.9 17.8,6.9 16.8,6.9 16.8,5.9 15.8,5.9 15.8,4.9 14.9,4.9 14.9,3.9 13.9,3.9 13.9,2.9 
		12.9,2.9 12.9,1.9 12,1.9 12,0.9 7.7,0.9 7.7,1.9 6.8,1.9 6.8,2.9 5.8,2.9 5.8,3.9 4.8,3.9 4.8,4.9 3.9,4.9 3.9,5.9 2.9,5.9 
		2.9,6.9 1.9,6.9 1.9,7.9 1,7.9 1,8.9 0,8.9 0,8.9 0,10.7 0,10.7 1,10.7 1,11.7 1.9,11.7 1.9,12.7 2.9,12.7 2.9,13.7 3.9,13.7 
		3.9,14.7 4.8,14.7 4.8,15.7 5.8,15.7 5.8,16.7 6.8,16.7 6.8,17.7 7.7,17.7 7.7,18.7 12,18.7 12,17.7 12.9,17.7 12.9,16.7 
		13.9,16.7 13.9,15.7 14.9,15.7 14.9,14.7 15.8,14.7 15.8,13.7 16.8,13.7 16.8,12.7 17.8,12.7 17.8,11.7 18.7,11.7 18.7,10.7 
		19.7,10.7 19.7,10.7 19.7,8.9 19.7,8.9 	"/>
	<polygon points="18.7,26.7 18.7,25.7 17.8,25.7 17.8,24.7 16.8,24.7 16.8,23.7 15.8,23.7 15.8,22.7 14.9,22.7 14.9,21.7 13.9,21.7 
		13.9,20.7 12.9,20.7 12.9,19.7 12,19.7 12,18.7 7.7,18.7 7.7,19.7 6.8,19.7 6.8,20.7 5.8,20.7 5.8,21.7 4.8,21.7 4.8,22.7 
		3.9,22.7 3.9,23.7 2.9,23.7 2.9,24.7 1.9,24.7 1.9,25.7 1,25.7 1,26.7 0,26.7 0,26.7 0,28.4 0,28.5 1,28.5 1,29.5 1.9,29.5 
		1.9,30.5 2.9,30.5 2.9,31.5 3.9,31.5 3.9,32.5 4.8,32.5 4.8,33.5 5.8,33.5 5.8,34.5 6.8,34.5 6.8,35.5 7.7,35.5 7.7,36.5 12,36.5 
		12,35.5 12.9,35.5 12.9,34.5 13.9,34.5 13.9,33.5 14.9,33.5 14.9,32.5 15.8,32.5 15.8,31.5 16.8,31.5 16.8,30.5 17.8,30.5 
		17.8,29.5 18.7,29.5 18.7,28.5 19.7,28.5 19.7,28.4 19.7,26.7 19.7,26.7 	"/>
	<path d="M108.5,15.5v-3.9h-3.8V7.7h-3.8V3.8h-4.5V0H94h-2.3v3.8h-4.5v3.9h-3.8v3.9h-3.8v3.9h-3.8v3.2v3.2h3.8v3.9h3.8v3.9h3.8v3.9
		h4.5v3.8H94h2.3v-3.8h4.5v-3.9h3.8v-3.9h3.8v-3.9h3.8v-3.2v-3.2H108.5z M103.6,19.7h-1v1h-1v1h-1v1h-1v1h-1v1h-1v1h-1v1h-1v1h-1v1
		h-1h-1v-1h-1v-1h-1v-1h-1v-1h-1v-1h-1v-1h-1v-1h-1v-1h-1v-1h-1v-1v-1h1v-1h1v-1h1v-1h1v-1h1v-1h1v-1h1v-1h1v-1h1v-1h1h1v1h1v1h1v1
		h1v1h1v1h1v1h1v1h1v1h1v1h1v1V19.7z"/>
	<polygon points="74.9,8.9 74.9,7.9 73.9,7.9 73.9,6.9 73,6.9 73,5.9 72,5.9 72,4.9 71,4.9 71,3.9 70.1,3.9 70.1,2.9 69.1,2.9 
		69.1,1.9 68.1,1.9 68.1,0.9 63.9,0.9 63.9,1.9 62.9,1.9 62.9,2.9 62,2.9 62,3.9 61,3.9 61,4.9 60,4.9 60,5.9 59.1,5.9 59.1,6.9 
		58.1,6.9 58.1,7.9 57.1,7.9 57.1,8.9 56.2,8.9 56.2,8.9 56.2,10.7 56.2,10.7 57.1,10.7 57.1,11.7 58.1,11.7 58.1,12.7 59.1,12.7 
		59.1,13.7 60,13.7 60,14.7 61,14.7 61,15.7 62,15.7 62,16.7 62.9,16.7 62.9,17.7 63.9,17.7 63.9,18.7 68.1,18.7 68.1,17.7 
		69.1,17.7 69.1,16.7 70.1,16.7 70.1,15.7 71,15.7 71,14.7 72,14.7 72,13.7 73,13.7 73,12.7 73.9,12.7 73.9,11.7 74.9,11.7 
		74.9,10.7 75.9,10.7 75.9,10.7 75.9,8.9 75.9,8.9 	"/>
	<polygon points="74.9,26.7 74.9,25.7 73.9,25.7 73.9,24.7 73,24.7 73,23.7 72,23.7 72,22.7 71,22.7 71,21.7 70.1,21.7 70.1,20.7 
		69.1,20.7 69.1,19.7 68.1,19.7 68.1,18.7 63.9,18.7 63.9,19.7 62.9,19.7 62.9,20.7 62,20.7 62,21.7 61,21.7 61,22.7 60,22.7 
		60,23.7 59.1,23.7 59.1,24.7 58.1,24.7 58.1,25.7 57.1,25.7 57.1,26.7 56.2,26.7 56.2,26.7 56.2,28.4 56.2,28.5 57.1,28.5 
		57.1,29.5 58.1,29.5 58.1,30.5 59.1,30.5 59.1,31.5 60,31.5 60,32.5 61,32.5 61,33.5 62,33.5 62,34.5 62.9,34.5 62.9,35.5 
		63.9,35.5 63.9,36.5 68.1,36.5 68.1,35.5 69.1,35.5 69.1,34.5 70.1,34.5 70.1,33.5 71,33.5 71,32.5 72,32.5 72,31.5 73,31.5 
		73,30.5 73.9,30.5 73.9,29.5 74.9,29.5 74.9,28.5 75.9,28.5 75.9,28.4 75.9,26.7 75.9,26.7 	"/>
	<path d="M164.7,15.5v-3.9h-3.8V7.7H157V3.8h-4.5V0h-2.3h-2.3v3.8h-4.5v3.9h-3.8v3.9h-3.8v3.9h-3.8v3.2v3.2h3.8v3.9h3.8v3.9h3.8v3.9
		h4.5v3.8h2.3h2.3v-3.8h4.5v-3.9h3.8v-3.9h3.8v-3.9h3.8v-3.2v-3.2H164.7z M159.8,19.7h-1v1h-1v1h-1v1h-1v1h-1v1h-1v1h-1v1h-1v1h-1v1
		h-1h-1v-1h-1v-1h-1v-1h-1v-1h-1v-1h-1v-1h-1v-1h-1v-1h-1v-1h-1v-1v-1h1v-1h1v-1h1v-1h1v-1h1v-1h1v-1h1v-1h1v-1h1v-1h1h1v1h1v1h1v1
		h1v1h1v1h1v1h1v1h1v1h1v1h1v1V19.7z"/>
	<polygon points="131.1,8.9 131.1,7.9 130.1,7.9 130.1,6.9 129.1,6.9 129.1,5.9 128.2,5.9 128.2,4.9 127.2,4.9 127.2,3.9 126.2,3.9 
		126.2,2.9 125.3,2.9 125.3,1.9 124.3,1.9 124.3,0.9 120.1,0.9 120.1,1.9 119.1,1.9 119.1,2.9 118.1,2.9 118.1,3.9 117.2,3.9 
		117.2,4.9 116.2,4.9 116.2,5.9 115.2,5.9 115.2,6.9 114.3,6.9 114.3,7.9 113.3,7.9 113.3,8.9 112.3,8.9 112.3,8.9 112.3,10.7 
		112.3,10.7 113.3,10.7 113.3,11.7 114.3,11.7 114.3,12.7 115.2,12.7 115.2,13.7 116.2,13.7 116.2,14.7 117.2,14.7 117.2,15.7 
		118.1,15.7 118.1,16.7 119.1,16.7 119.1,17.7 120.1,17.7 120.1,18.7 124.3,18.7 124.3,17.7 125.3,17.7 125.3,16.7 126.2,16.7 
		126.2,15.7 127.2,15.7 127.2,14.7 128.2,14.7 128.2,13.7 129.1,13.7 129.1,12.7 130.1,12.7 130.1,11.7 131.1,11.7 131.1,10.7 
		132,10.7 132,10.7 132,8.9 132,8.9 	"/>
	<polygon points="131.1,26.7 131.1,25.7 130.1,25.7 130.1,24.7 129.1,24.7 129.1,23.7 128.2,23.7 128.2,22.7 127.2,22.7 127.2,21.7 
		126.2,21.7 126.2,20.7 125.3,20.7 125.3,19.7 124.3,19.7 124.3,18.7 120.1,18.7 120.1,19.7 119.1,19.7 119.1,20.7 118.1,20.7 
		118.1,21.7 117.2,21.7 117.2,22.7 116.2,22.7 116.2,23.7 115.2,23.7 115.2,24.7 114.3,24.7 114.3,25.7 113.3,25.7 113.3,26.7 
		112.3,26.7 112.3,26.7 112.3,28.4 112.3,28.5 113.3,28.5 113.3,29.5 114.3,29.5 114.3,30.5 115.2,30.5 115.2,31.5 116.2,31.5 
		116.2,32.5 117.2,32.5 117.2,33.5 118.1,33.5 118.1,34.5 119.1,34.5 119.1,35.5 120.1,35.5 120.1,36.5 124.3,36.5 124.3,35.5 
		125.3,35.5 125.3,34.5 126.2,34.5 126.2,33.5 127.2,33.5 127.2,32.5 128.2,32.5 128.2,31.5 129.1,31.5 129.1,30.5 130.1,30.5 
		130.1,29.5 131.1,29.5 131.1,28.5 132,28.5 132,28.4 132,26.7 132,26.7 	"/>
	<path d="M220.8,15.5v-3.9H217V7.7h-3.8V3.8h-4.5V0h-2.3H204v3.8h-4.5v3.9h-3.8v3.9h-3.8v3.9H188v3.2v3.2h3.8v3.9h3.8v3.9h3.8v3.9
		h4.5v3.8h2.3h2.3v-3.8h4.5v-3.9h3.8v-3.9h3.8v-3.9h3.8v-3.2v-3.2H220.8z M216,19.7h-1v1h-1v1h-1v1h-1v1h-1v1h-1v1h-1v1h-1v1h-1v1
		h-1h-1v-1h-1v-1h-1v-1h-1v-1h-1v-1h-1v-1h-1v-1h-1v-1h-1v-1h-1v-1v-1h1v-1h1v-1h1v-1h1v-1h1v-1h1v-1h1v-1h1v-1h1v-1h1h1v1h1v1h1v1
		h1v1h1v1h1v1h1v1h1v1h1v1h1v1V19.7z"/>
	<polygon points="187.2,8.9 187.2,7.9 186.3,7.9 186.3,6.9 185.3,6.9 185.3,5.9 184.3,5.9 184.3,4.9 183.4,4.9 183.4,3.9 182.4,3.9 
		182.4,2.9 181.4,2.9 181.4,1.9 180.5,1.9 180.5,0.9 176.2,0.9 176.2,1.9 175.3,1.9 175.3,2.9 174.3,2.9 174.3,3.9 173.3,3.9 
		173.3,4.9 172.4,4.9 172.4,5.9 171.4,5.9 171.4,6.9 170.4,6.9 170.4,7.9 169.5,7.9 169.5,8.9 168.5,8.9 168.5,8.9 168.5,10.7 
		168.5,10.7 169.5,10.7 169.5,11.7 170.4,11.7 170.4,12.7 171.4,12.7 171.4,13.7 172.4,13.7 172.4,14.7 173.3,14.7 173.3,15.7 
		174.3,15.7 174.3,16.7 175.3,16.7 175.3,17.7 176.2,17.7 176.2,18.7 180.5,18.7 180.5,17.7 181.4,17.7 181.4,16.7 182.4,16.7 
		182.4,15.7 183.4,15.7 183.4,14.7 184.3,14.7 184.3,13.7 185.3,13.7 185.3,12.7 186.3,12.7 186.3,11.7 187.2,11.7 187.2,10.7 
		188.2,10.7 188.2,10.7 188.2,8.9 188.2,8.9 	"/>
	<polygon points="187.2,26.7 187.2,25.7 186.3,25.7 186.3,24.7 185.3,24.7 185.3,23.7 184.3,23.7 184.3,22.7 183.4,22.7 183.4,21.7 
		182.4,21.7 182.4,20.7 181.4,20.7 181.4,19.7 180.5,19.7 180.5,18.7 176.2,18.7 176.2,19.7 175.3,19.7 175.3,20.7 174.3,20.7 
		174.3,21.7 173.3,21.7 173.3,22.7 172.4,22.7 172.4,23.7 171.4,23.7 171.4,24.7 170.4,24.7 170.4,25.7 169.5,25.7 169.5,26.7 
		168.5,26.7 168.5,26.7 168.5,28.4 168.5,28.5 169.5,28.5 169.5,29.5 170.4,29.5 170.4,30.5 171.4,30.5 171.4,31.5 172.4,31.5 
		172.4,32.5 173.3,32.5 173.3,33.5 174.3,33.5 174.3,34.5 175.3,34.5 175.3,35.5 176.2,35.5 176.2,36.5 180.5,36.5 180.5,35.5 
		181.4,35.5 181.4,34.5 182.4,34.5 182.4,33.5 183.4,33.5 183.4,32.5 184.3,32.5 184.3,31.5 185.3,31.5 185.3,30.5 186.3,30.5 
		186.3,29.5 187.2,29.5 187.2,28.5 188.2,28.5 188.2,28.4 188.2,26.7 188.2,26.7 	"/>
	<path d="M277,15.5v-3.9h-3.8V7.7h-3.8V3.8h-4.5V0h-2.3h-2.3v3.8h-4.5v3.9h-3.8v3.9H248v3.9h-3.8v3.2v3.2h3.8v3.9h3.8v3.9h3.8v3.9
		h4.5v3.8h2.3h2.3v-3.8h4.5v-3.9h3.8v-3.9h3.8v-3.9h3.8v-3.2v-3.2H277z M272.1,19.7h-1v1h-1v1h-1v1h-1v1h-1v1h-1v1h-1v1h-1v1h-1v1
		h-1h-1v-1h-1v-1h-1v-1h-1v-1h-1v-1h-1v-1h-1v-1h-1v-1h-1v-1h-1v-1v-1h1v-1h1v-1h1v-1h1v-1h1v-1h1v-1h1v-1h1v-1h1v-1h1h1v1h1v1h1v1
		h1v1h1v1h1v1h1v1h1v1h1v1h1v1V19.7z"/>
	<polygon points="243.4,8.9 243.4,7.9 242.4,7.9 242.4,6.9 241.5,6.9 241.5,5.9 240.5,5.9 240.5,4.9 239.5,4.9 239.5,3.9 238.6,3.9 
		238.6,2.9 237.6,2.9 237.6,1.9 236.6,1.9 236.6,0.9 232.4,0.9 232.4,1.9 231.4,1.9 231.4,2.9 230.5,2.9 230.5,3.9 229.5,3.9 
		229.5,4.9 228.5,4.9 228.5,5.9 227.6,5.9 227.6,6.9 226.6,6.9 226.6,7.9 225.6,7.9 225.6,8.9 224.7,8.9 224.7,8.9 224.7,10.7 
		224.7,10.7 225.6,10.7 225.6,11.7 226.6,11.7 226.6,12.7 227.6,12.7 227.6,13.7 228.5,13.7 228.5,14.7 229.5,14.7 229.5,15.7 
		230.5,15.7 230.5,16.7 231.4,16.7 231.4,17.7 232.4,17.7 232.4,18.7 236.6,18.7 236.6,17.7 237.6,17.7 237.6,16.7 238.6,16.7 
		238.6,15.7 239.5,15.7 239.5,14.7 240.5,14.7 240.5,13.7 241.5,13.7 241.5,12.7 242.4,12.7 242.4,11.7 243.4,11.7 243.4,10.7 
		244.4,10.7 244.4,10.7 244.4,8.9 244.4,8.9 	"/>
	<polygon points="243.4,26.7 243.4,25.7 242.4,25.7 242.4,24.7 241.5,24.7 241.5,23.7 240.5,23.7 240.5,22.7 239.5,22.7 239.5,21.7 
		238.6,21.7 238.6,20.7 237.6,20.7 237.6,19.7 236.6,19.7 236.6,18.7 232.4,18.7 232.4,19.7 231.4,19.7 231.4,20.7 230.5,20.7 
		230.5,21.7 229.5,21.7 229.5,22.7 228.5,22.7 228.5,23.7 227.6,23.7 227.6,24.7 226.6,24.7 226.6,25.7 225.6,25.7 225.6,26.7 
		224.7,26.7 224.7,26.7 224.7,28.4 224.7,28.5 225.6,28.5 225.6,29.5 226.6,29.5 226.6,30.5 227.6,30.5 227.6,31.5 228.5,31.5 
		228.5,32.5 229.5,32.5 229.5,33.5 230.5,33.5 230.5,34.5 231.4,34.5 231.4,35.5 232.4,35.5 232.4,36.5 236.6,36.5 236.6,35.5 
		237.6,35.5 237.6,34.5 238.6,34.5 238.6,33.5 239.5,33.5 239.5,32.5 240.5,32.5 240.5,31.5 241.5,31.5 241.5,30.5 242.4,30.5 
		242.4,29.5 243.4,29.5 243.4,28.5 244.4,28.5 244.4,28.4 244.4,26.7 244.4,26.7 	"/>
	<path d="M333.2,15.5v-3.9h-3.8V7.7h-3.8V3.8H321V0h-2.3h-2.3v3.8h-4.5v3.9H308v3.9h-3.8v3.9h-3.8v3.2v3.2h3.8v3.9h3.8v3.9h3.8v3.9
		h4.5v3.8h2.3h2.3v-3.8h4.5v-3.9h3.8v-3.9h3.8v-3.9h3.8v-3.2v-3.2H333.2z M328.3,19.7h-1v1h-1v1h-1v1h-1v1h-1v1h-1v1h-1v1h-1v1h-1v1
		h-1h-1v-1h-1v-1h-1v-1h-1v-1h-1v-1h-1v-1h-1v-1h-1v-1h-1v-1h-1v-1v-1h1v-1h1v-1h1v-1h1v-1h1v-1h1v-1h1v-1h1v-1h1v-1h1h1v1h1v1h1v1
		h1v1h1v1h1v1h1v1h1v1h1v1h1v1V19.7z"/>
	<polygon points="299.6,8.9 299.6,7.9 298.6,7.9 298.6,6.9 297.6,6.9 297.6,5.9 296.7,5.9 296.7,4.9 295.7,4.9 295.7,3.9 294.7,3.9 
		294.7,2.9 293.8,2.9 293.8,1.9 292.8,1.9 292.8,0.9 288.6,0.9 288.6,1.9 287.6,1.9 287.6,2.9 286.6,2.9 286.6,3.9 285.7,3.9 
		285.7,4.9 284.7,4.9 284.7,5.9 283.7,5.9 283.7,6.9 282.8,6.9 282.8,7.9 281.8,7.9 281.8,8.9 280.8,8.9 280.8,8.9 280.8,10.7 
		280.8,10.7 281.8,10.7 281.8,11.7 282.8,11.7 282.8,12.7 283.7,12.7 283.7,13.7 284.7,13.7 284.7,14.7 285.7,14.7 285.7,15.7 
		286.6,15.7 286.6,16.7 287.6,16.7 287.6,17.7 288.6,17.7 288.6,18.7 292.8,18.7 292.8,17.7 293.8,17.7 293.8,16.7 294.7,16.7 
		294.7,15.7 295.7,15.7 295.7,14.7 296.7,14.7 296.7,13.7 297.6,13.7 297.6,12.7 298.6,12.7 298.6,11.7 299.6,11.7 299.6,10.7 
		300.5,10.7 300.5,10.7 300.5,8.9 300.5,8.9 	"/>
	<polygon points="299.6,26.7 299.6,25.7 298.6,25.7 298.6,24.7 297.6,24.7 297.6,23.7 296.7,23.7 296.7,22.7 295.7,22.7 295.7,21.7 
		294.7,21.7 294.7,20.7 293.8,20.7 293.8,19.7 292.8,19.7 292.8,18.7 288.6,18.7 288.6,19.7 287.6,19.7 287.6,20.7 286.6,20.7 
		286.6,21.7 285.7,21.7 285.7,22.7 284.7,22.7 284.7,23.7 283.7,23.7 283.7,24.7 282.8,24.7 282.8,25.7 281.8,25.7 281.8,26.7 
		280.8,26.7 280.8,26.7 280.8,28.4 280.8,28.5 281.8,28.5 281.8,29.5 282.8,29.5 282.8,30.5 283.7,30.5 283.7,31.5 284.7,31.5 
		284.7,32.5 285.7,32.5 285.7,33.5 286.6,33.5 286.6,34.5 287.6,34.5 287.6,35.5 288.6,35.5 288.6,36.5 292.8,36.5 292.8,35.5 
		293.8,35.5 293.8,34.5 294.7,34.5 294.7,33.5 295.7,33.5 295.7,32.5 296.7,32.5 296.7,31.5 297.6,31.5 297.6,30.5 298.6,30.5 
		298.6,29.5 299.6,29.5 299.6,28.5 300.5,28.5 300.5,28.4 300.5,26.7 300.5,26.7 	"/>
	<path d="M389.3,15.5v-3.9h-3.8V7.7h-3.8V3.8h-4.5V0h-2.3h-2.3v3.8H368v3.9h-3.8v3.9h-3.8v3.9h-3.8v3.2v3.2h3.8v3.9h3.8v3.9h3.8v3.9
		h4.5v3.8h2.3h2.3v-3.8h4.5v-3.9h3.8v-3.9h3.8v-3.9h3.8v-3.2v-3.2H389.3z M384.5,19.7h-1v1h-1v1h-1v1h-1v1h-1v1h-1v1h-1v1h-1v1h-1v1
		h-1h-1v-1h-1v-1h-1v-1h-1v-1h-1v-1h-1v-1h-1v-1h-1v-1h-1v-1h-1v-1v-1h1v-1h1v-1h1v-1h1v-1h1v-1h1v-1h1v-1h1v-1h1v-1h1h1v1h1v1h1v1
		h1v1h1v1h1v1h1v1h1v1h1v1h1v1V19.7z"/>
	<polygon points="355.7,8.9 355.7,7.9 354.8,7.9 354.8,6.9 353.8,6.9 353.8,5.9 352.8,5.9 352.8,4.9 351.9,4.9 351.9,3.9 350.9,3.9 
		350.9,2.9 349.9,2.9 349.9,1.9 349,1.9 349,0.9 344.7,0.9 344.7,1.9 343.8,1.9 343.8,2.9 342.8,2.9 342.8,3.9 341.8,3.9 341.8,4.9 
		340.9,4.9 340.9,5.9 339.9,5.9 339.9,6.9 338.9,6.9 338.9,7.9 338,7.9 338,8.9 337,8.9 337,8.9 337,10.7 337,10.7 338,10.7 
		338,11.7 338.9,11.7 338.9,12.7 339.9,12.7 339.9,13.7 340.9,13.7 340.9,14.7 341.8,14.7 341.8,15.7 342.8,15.7 342.8,16.7 
		343.8,16.7 343.8,17.7 344.7,17.7 344.7,18.7 349,18.7 349,17.7 349.9,17.7 349.9,16.7 350.9,16.7 350.9,15.7 351.9,15.7 
		351.9,14.7 352.8,14.7 352.8,13.7 353.8,13.7 353.8,12.7 354.8,12.7 354.8,11.7 355.7,11.7 355.7,10.7 356.7,10.7 356.7,10.7 
		356.7,8.9 356.7,8.9 	"/>
	<polygon points="355.7,26.7 355.7,25.7 354.8,25.7 354.8,24.7 353.8,24.7 353.8,23.7 352.8,23.7 352.8,22.7 351.9,22.7 351.9,21.7 
		350.9,21.7 350.9,20.7 349.9,20.7 349.9,19.7 349,19.7 349,18.7 344.7,18.7 344.7,19.7 343.8,19.7 343.8,20.7 342.8,20.7 
		342.8,21.7 341.8,21.7 341.8,22.7 340.9,22.7 340.9,23.7 339.9,23.7 339.9,24.7 338.9,24.7 338.9,25.7 338,25.7 338,26.7 337,26.7 
		337,26.7 337,28.4 337,28.5 338,28.5 338,29.5 338.9,29.5 338.9,30.5 339.9,30.5 339.9,31.5 340.9,31.5 340.9,32.5 341.8,32.5 
		341.8,33.5 342.8,33.5 342.8,34.5 343.8,34.5 343.8,35.5 344.7,35.5 344.7,36.5 349,36.5 349,35.5 349.9,35.5 349.9,34.5 
		350.9,34.5 350.9,33.5 351.9,33.5 351.9,32.5 352.8,32.5 352.8,31.5 353.8,31.5 353.8,30.5 354.8,30.5 354.8,29.5 355.7,29.5 
		355.7,28.5 356.7,28.5 356.7,28.4 356.7,26.7 356.7,26.7 	"/>
	<path d="M445.5,15.5v-3.9h-3.8V7.7h-3.8V3.8h-4.5V0H431h-2.3v3.8h-4.5v3.9h-3.8v3.9h-3.8v3.9h-3.8v3.2v3.2h3.8v3.9h3.8v3.9h3.8v3.9
		h4.5v3.8h2.3h2.3v-3.8h4.5v-3.9h3.8v-3.9h3.8v-3.9h3.8v-3.2v-3.2H445.5z M440.7,19.7h-1v1h-1v1h-1v1h-1v1h-1v1h-1v1h-1v1h-1v1h-1v1
		h-1h-1v-1h-1v-1h-1v-1h-1v-1h-1v-1h-1v-1h-1v-1h-1v-1h-1v-1h-1v-1v-1h1v-1h1v-1h1v-1h1v-1h1v-1h1v-1h1v-1h1v-1h1v-1h1h1v1h1v1h1v1
		h1v1h1v1h1v1h1v1h1v1h1v1h1v1V19.7z"/>
	<polygon points="411.9,8.9 411.9,7.9 410.9,7.9 410.9,6.9 410,6.9 410,5.9 409,5.9 409,4.9 408,4.9 408,3.9 407.1,3.9 407.1,2.9 
		406.1,2.9 406.1,1.9 405.1,1.9 405.1,0.9 400.9,0.9 400.9,1.9 399.9,1.9 399.9,2.9 399,2.9 399,3.9 398,3.9 398,4.9 397,4.9 
		397,5.9 396.1,5.9 396.1,6.9 395.1,6.9 395.1,7.9 394.1,7.9 394.1,8.9 393.2,8.9 393.2,8.9 393.2,10.7 393.2,10.7 394.1,10.7 
		394.1,11.7 395.1,11.7 395.1,12.7 396.1,12.7 396.1,13.7 397,13.7 397,14.7 398,14.7 398,15.7 399,15.7 399,16.7 399.9,16.7 
		399.9,17.7 400.9,17.7 400.9,18.7 405.1,18.7 405.1,17.7 406.1,17.7 406.1,16.7 407.1,16.7 407.1,15.7 408,15.7 408,14.7 409,14.7 
		409,13.7 410,13.7 410,12.7 410.9,12.7 410.9,11.7 411.9,11.7 411.9,10.7 412.9,10.7 412.9,10.7 412.9,8.9 412.9,8.9 	"/>
	<polygon points="411.9,26.7 411.9,25.7 410.9,25.7 410.9,24.7 410,24.7 410,23.7 409,23.7 409,22.7 408,22.7 408,21.7 407.1,21.7 
		407.1,20.7 406.1,20.7 406.1,19.7 405.1,19.7 405.1,18.7 400.9,18.7 400.9,19.7 399.9,19.7 399.9,20.7 399,20.7 399,21.7 398,21.7 
		398,22.7 397,22.7 397,23.7 396.1,23.7 396.1,24.7 395.1,24.7 395.1,25.7 394.1,25.7 394.1,26.7 393.2,26.7 393.2,26.7 393.2,28.4 
		393.2,28.5 394.1,28.5 394.1,29.5 395.1,29.5 395.1,30.5 396.1,30.5 396.1,31.5 397,31.5 397,32.5 398,32.5 398,33.5 399,33.5 
		399,34.5 399.9,34.5 399.9,35.5 400.9,35.5 400.9,36.5 405.1,36.5 405.1,35.5 406.1,35.5 406.1,34.5 407.1,34.5 407.1,33.5 
		408,33.5 408,32.5 409,32.5 409,31.5 410,31.5 410,30.5 410.9,30.5 410.9,29.5 411.9,29.5 411.9,28.5 412.9,28.5 412.9,28.4 
		412.9,26.7 412.9,26.7 	"/>
	<polygon points="468.1,8.9 468.1,7.9 467.1,7.9 467.1,6.9 466.1,6.9 466.1,5.9 465.2,5.9 465.2,4.9 464.2,4.9 464.2,3.9 463.2,3.9 
		463.2,2.9 462.3,2.9 462.3,1.9 461.3,1.9 461.3,0.9 457.1,0.9 457.1,1.9 456.1,1.9 456.1,2.9 455.1,2.9 455.1,3.9 454.2,3.9 
		454.2,4.9 453.2,4.9 453.2,5.9 452.2,5.9 452.2,6.9 451.3,6.9 451.3,7.9 450.3,7.9 450.3,8.9 449.3,8.9 449.3,8.9 449.3,10.7 
		449.3,10.7 450.3,10.7 450.3,11.7 451.3,11.7 451.3,12.7 452.2,12.7 452.2,13.7 453.2,13.7 453.2,14.7 454.2,14.7 454.2,15.7 
		455.1,15.7 455.1,16.7 456.1,16.7 456.1,17.7 457.1,17.7 457.1,18.7 461.3,18.7 461.3,17.7 462.3,17.7 462.3,16.7 463.2,16.7 
		463.2,15.7 464.2,15.7 464.2,14.7 465.2,14.7 465.2,13.7 466.1,13.7 466.1,12.7 467.1,12.7 467.1,11.7 468.1,11.7 468.1,10.7 
		469,10.7 469,10.7 469,8.9 469,8.9 	"/>
	<polygon points="468.1,26.7 468.1,25.7 467.1,25.7 467.1,24.7 466.1,24.7 466.1,23.7 465.2,23.7 465.2,22.7 464.2,22.7 464.2,21.7 
		463.2,21.7 463.2,20.7 462.3,20.7 462.3,19.7 461.3,19.7 461.3,18.7 457.1,18.7 457.1,19.7 456.1,19.7 456.1,20.7 455.1,20.7 
		455.1,21.7 454.2,21.7 454.2,22.7 453.2,22.7 453.2,23.7 452.2,23.7 452.2,24.7 451.3,24.7 451.3,25.7 450.3,25.7 450.3,26.7 
		449.3,26.7 449.3,26.7 449.3,28.4 449.3,28.5 450.3,28.5 450.3,29.5 451.3,29.5 451.3,30.5 452.2,30.5 452.2,31.5 453.2,31.5 
		453.2,32.5 454.2,32.5 454.2,33.5 455.1,33.5 455.1,34.5 456.1,34.5 456.1,35.5 457.1,35.5 457.1,36.5 461.3,36.5 461.3,35.5 
		462.3,35.5 462.3,34.5 463.2,34.5 463.2,33.5 464.2,33.5 464.2,32.5 465.2,32.5 465.2,31.5 466.1,31.5 466.1,30.5 467.1,30.5 
		467.1,29.5 468.1,29.5 468.1,28.5 469,28.5 469,28.4 469,26.7 469,26.7 	"/>
</g>
</svg>
