<?xml version="1.0" encoding="utf-8"?>
<!-- Generator: Adobe Illustrator 21.1.0, SVG Export Plug-In . SVG Version: 6.00 Build 0)  -->
<svg version="1.1" id="Layer_1" xmlns="http://www.w3.org/2000/svg" xmlns:xlink="http://www.w3.org/1999/xlink" x="0px" y="0px"
	 viewBox="0 0 132.9 134.1" style="enable-background:new 0 0 132.9 134.1;" xml:space="preserve">
<style type="text/css">
	.st0{fill:#DAC392;}
</style>
<g>
	<polygon class="st0" points="77,100.7 69.3,89.4 64.8,102.3 61.5,89.1 52.9,99.6 54.3,86.1 42.6,93 48.5,80.8 35.1,83.3 44.9,73.8 
		31.4,71.6 43.9,66 32,59.4 45.6,58.4 36.7,48.1 49.8,51.8 45,39 56,47 55.9,33.4 63.5,44.7 68,31.8 71.3,45 80,34.5 78.6,48 
		90.3,41.1 84.4,53.3 97.7,50.8 88,60.3 101.4,62.5 89,68.1 100.9,74.7 87.3,75.7 96.2,86.1 83,82.3 87.9,95.1 76.8,87.1 	"/>
	<path class="st0" d="M64.2,134.1L57.8,108l-16.4,21.3l2.9-26.8L21.6,117l11.9-24.1L7.2,98.7L26.7,80L0,76.5l24.6-10.8L0.8,53.2
		l26.9-1.8L9.5,31.6l25.8,7.5L25,14.3l21.7,15.9L45.6,3.3l15,22.4L68.7,0l6.4,26.1L91.5,4.8l-2.9,26.8l22.7-14.4L99.3,41.3l26.3-5.8
		l-19.4,18.6l26.7,3.5l-24.6,10.8l23.9,12.5l-26.9,1.8l18.2,19.9L97.5,95l10.3,24.9L86.1,104l1.1,26.9l-15-22.4L64.2,134.1z
		 M59.4,100.5l5.2,21.3l6.6-21l12.2,18.3l-0.9-22l17.7,13l-8.4-20.3l21.1,6.2L98.1,79.8l21.9-1.4l-19.5-10.2l20.1-8.8l-21.8-2.9
		l15.9-15.2L93.3,46l9.7-19.7L84.5,38.1l2.4-21.8L73.5,33.7l-5.2-21.3l-6.6,21L49.4,15l0.9,22l-17.7-13L41,44.3l-21.1-6.2l14.8,16.2
		l-21.9,1.4l19.5,10.2l-20.1,8.8L34,77.7L18.1,92.9l21.5-4.7l-9.7,19.7L48.4,96L46,117.9L59.4,100.5z"/>
</g>
</svg>
