<?xml version="1.0" encoding="utf-8"?>
<!-- Generator: Adobe Illustrator 21.1.0, SVG Export Plug-In . SVG Version: 6.00 Build 0)  -->
<svg version="1.1" id="Layer_1" xmlns="http://www.w3.org/2000/svg" xmlns:xlink="http://www.w3.org/1999/xlink" x="0px" y="0px"
	 viewBox="0 0 84.2 178.6" style="enable-background:new 0 0 84.2 178.6;" xml:space="preserve">
<style type="text/css">
	.st0{fill:#243636;}
</style>
<path class="st0" d="M29.2,50.2c0,0-0.5-4.1,1.4-5.7s2.7-2,2.7-2s1.4-10.7,10.3-10.7s9.5,4.6,9.6,5.4c0.1,0.8,1.1,1,2.6,1.4
	c1.5,0.4,2.5,0.4,2,1.2s-1.1,1.4-0.5,1.7c0.6,0.3,0.6,1.2,0.6,1.9c0,0.7,0.7-0.2,1.1,0.7c0.4,0.9-0.6,1.5-0.4,2.5c0.2,1,0.2,2-1.8,3
	c-1.9,1-1.2,2.2,0,2.1c1.2-0.1,3.4-0.7,4.4-2.9c1-2.2,2.2-4,4.9-5.7c2.6-1.6,2.1-5.2,9-6.9c0,0,0.4-6.8,1.3-9.4
	c1-2.6,0.4-10.3,0.4-10.3s-1.1-0.8-1.3-2.2s-0.2-1.4-0.2-1.4s-4.2-3.5-5.7-4.6s-1.5-4.8,1.8-7s7.5-0.7,9.2,1.1
	c1.7,1.8,2.8,4.3,2.8,8.1c0.1,3.7,0.1,4.8-0.8,5.2c0,0,0.7,7.2,0.8,9.8c0.1,2.6,0.6,9.5-1.6,13.1c-2.2,3.6-1.9,6.7-5.4,9.1
	C73,49.9,72,54.9,72.3,58c0.2,3.1,1.6,0.7,1.6,7.8s-0.7,7.8,0,13.4c0.7,5.6-1.1,10.4-1,12.9c0.1,2.5-0.4,5-1,8.4
	c-0.7,3.4,1,4.9,1.8,6.1c0.8,1.2,6.6,13,7.8,16.4c1.3,3.4,1.6,4.4,1.6,4.4l-0.7,0.3c0,0,2.1,3.6,1.8,6.9c-0.3,3.3-3.2,6.4-6.5,8.4
	c-3.3,2-15.5,15.8-15.5,15.8s0.3,1.1-1.4,2.4c-1.7,1.3-2.8,6.5-1.7,8.8s3,5.1,5.7,5.7c2.7,0.6,2.6,3,1.4,3s-4.2,0-6.5,0
	c-2.3,0-3.7-1.8-5.2-3.5c-1.4-1.7-2.9-3.3-5.7-4.1s-3.3-4.1-3.3-4.1s1.1-2.3,2.9-3.8s3.3-4.6,4.2-6.1c0.9-1.5,1.2-2.9,2.4-2.4
	c0,0,4.9-8.5,6.5-11.2c1.6-2.7,5.6-4.5,7.9-5.3c2.4-0.8,3.3-1.7,2.4-3c-1-1.4-3.7-4.6-3.7-4.6s-4.1,0.7-7.3,0.8c0,0-0.2-5.4-1.9-9.1
	l-7.9,8c0,0-2.5-0.1-4.3-1c0,0-6.5,6.6-10,8.1c-3.6,1.5-6.3,3.3-11.1,8c-4.8,4.7-9.2,9.7-9.2,9.7s0.7,1-0.5,2s-4,3.2-3.4,6.4
	s1,6.8,3,7.3s3.7,1.4,3.7,2.9s-0.8,1.5-2,1.5s-5.1,0-6.6,0s-2.3-3-3.6-4.8c-1.3-1.7-2.4-2.3-2.4-2.3l-1,0.6c0,0-3.5-3-3.6-5.2
	s0.4-2.5,1.4-3.1c1-0.6,7.8-9.1,8.3-9.6c0.5-0.5,5.9-8.8,8.2-11.9c2.3-3.1,6.1-4.5,8.7-6.2s12.5-18.9,14.8-22.9s1.2-6.1,3.7-8.6
	c2.5-2.6,9.4-8.8,9.5-11.8c0.1-3-8.8-8.3-10.5-11.1c-1.7-2.8-3-4.7-4.2-4.2c-1.2,0.5-1.5,2.7-4.3,4c-2.8,1.3-6.6,3.5-6.6,3.5
	s2.3,2.5,3.9,4.2c1.6,1.7,1.4,1.4,1.4,1.4s1.3,0.1,2,1.2c0.7,1.1,3.6,0.2,5.9,1c2.3,0.8,4.6,3.7,3.5,5.1c-1.1,1.4-1.4,5.9-5.1,6.8
	c-3.7,0.9-4.3-0.4-6.8-3.5c-2.5-3.1-3-1.1-3.2-5c0,0-6-3.3-8.5-7.2c-2.4-3.8-3.8-6.9-2.1-8c1.7-1.1,7-5.1,9-6.8
	c1.9-1.7,3.5-1.9,4.6-4.3s1.6-4,4.6-4.3s5.2-4.1,5.6-4.8c0.4-0.7-0.2-4.3-0.6-4.9c-0.4-0.6-4.1-2.7-4.1-2.7s0.7,6.2-0.8,8.9
	c0,0-5.3-5.6-4.3-11.2C33.8,47.5,32.7,50.2,29.2,50.2z"/>
</svg>
