<?xml version="1.0" encoding="utf-8"?>
<!-- Generator: Adobe Illustrator 21.1.0, SVG Export Plug-In . SVG Version: 6.00 Build 0)  -->
<svg version="1.1" id="Layer_1" xmlns="http://www.w3.org/2000/svg" xmlns:xlink="http://www.w3.org/1999/xlink" x="0px" y="0px"
	 viewBox="0 0 400.8 72.4" style="enable-background:new 0 0 400.8 72.4;" xml:space="preserve">
<style type="text/css">
	.st0{fill:#A49785;}
	.st1{fill:#263438;}
	.st2{fill:#DAC392;}
</style>
<g>
	<path class="st0" d="M267,70.7c0,0-15.8-3.2-25.7-7.2c-9.9-4-9.9,3.6-9.9,3.6s-17.4,2-35.3-12.4s-18.4-16.8-28.1-16.8
		c-9.6,0-21.4,7.8-15.5,16.4c0,0-28.3-11.6-43.6-20.2s-23.3-6.9-21.4,8c0,0-10.4-11.8-25.7-17.9s-20.6-4.8-27.3-4.8s-20,8-12.3,15.5
		c0,0-9.4-4.8-18.2,2.1s-3.2,23,8.6,28.9c11.8,5.9,11.8,5.9,11.8,5.9L267,70.7z"/>
	<path class="st1" d="M393.8,58.7H235.3v2c0,0-7.7,0-11.6,0c-3.9,0-6-3.7-6.9-5.1h3.6c0,0,1.1,2.6,6.2,2.6c0,0-2.2-1.6-2.2-3.8
		s1.8-3.2,3.5-3.2V47c0,0-1.5-0.3-1.5-2.6s0-3,0-4.2c0-1.2,1.5-2,1.5-2v-9.4l-0.8-1.4v-2.3h80.2V0h33.5c5.5,0,7.8,5.6,8.7,8.2
		c0.9,2.6,5.6,12.7,5.6,12.7s25.9,0.1,32.1,2.4s7.6,6.1,7.9,9.1c0.3,3,0.3,3,0.3,3s3.6-0.2,3.6,1s0,5.9,0,7.2s-3.5,1.3-3.5,1.3v6.5
		c0,0,0.8,0,2.8,0c2,0,2.7,1.4,2.7,3.6C400.8,57.2,401,58.7,393.8,58.7z"/>
	<circle class="st1" cx="375.3" cy="58.7" r="13.7"/>
	<circle class="st1" cx="265.3" cy="58.7" r="13.7"/>
	<circle class="st2" cx="265.3" cy="58.7" r="5.7"/>
	<circle class="st2" cx="375.3" cy="58.7" r="5.7"/>
	<polygon class="st2" points="317.4,19.3 317.4,6.6 336.7,6.6 344,19.3 	"/>
	<rect x="307.2" y="6.6" class="st2" width="4" height="12.7"/>
	<polygon class="st2" points="348.7,6.6 345,6.6 351.7,19.3 354.2,19.3 	"/>
</g>
</svg>
